<?xml version="1.0" standalone="no"?>
<!DOCTYPE svg PUBLIC "-//W3C//DTD SVG 20010904//EN"
 "http://www.w3.org/TR/2001/REC-SVG-20010904/DTD/svg10.dtd">
<svg version="1.0" xmlns="http://www.w3.org/2000/svg"
 width="500.000000pt" height="500.000000pt" viewBox="0 0 500.000000 500.000000"
 preserveAspectRatio="xMidYMid meet">
<metadata>
Created by potrace 1.14, written by Peter Selinger 2001-2017
</metadata>
<g transform="translate(0.000000,500.000000) scale(0.100000,-0.100000)"
fill="#000000" stroke="none">
<path d="M2370 4855 c-91 -52 -172 -99 -180 -104 -15 -10 -227 -133 -290 -169
-19 -11 -156 -91 -305 -177 -148 -87 -340 -198 -425 -248 -85 -49 -261 -151
-390 -227 -129 -75 -353 -205 -498 -289 -180 -105 -260 -157 -254 -165 5 -6 8
-226 8 -489 l-1 -479 195 -115 c107 -64 267 -159 355 -211 88 -52 194 -113
235 -136 41 -22 127 -71 190 -109 63 -39 131 -79 150 -90 41 -23 459 -271 607
-360 57 -34 111 -66 121 -72 10 -5 142 -84 295 -175 152 -91 293 -174 312
-185 20 -11 104 -61 188 -111 542 -325 627 -373 659 -372 22 1 82 30 183 88
83 48 166 97 185 108 19 10 86 49 149 86 62 36 115 66 117 66 3 0 28 15 57 34
28 18 258 152 509 297 455 262 458 264 458 297 0 17 -4 32 -10 32 -7 0 -10
168 -10 483 l-1 482 -371 205 c-205 113 -380 213 -390 223 -10 9 -21 17 -24
17 -5 0 -33 17 -178 105 -19 11 -170 105 -337 209 l-304 190 1 492 0 492 -28
6 c-16 3 -49 19 -73 36 -24 16 -46 30 -49 30 -2 0 -56 30 -119 68 -64 37 -128
74 -144 83 -15 10 -118 69 -227 133 -110 64 -200 116 -201 116 0 0 -75 -43
-165 -95z m-695 -1534 c3 -5 2 -12 -3 -15 -5 -3 -9 1 -9 9 0 17 3 19 12 6z
m-8 -163 c-3 -8 -6 -5 -6 6 -1 11 2 17 5 13 3 -3 4 -12 1 -19z m8 -77 c3 -5 2
-12 -3 -15 -5 -3 -9 1 -9 9 0 17 3 19 12 6z m-8 -163 c-3 -8 -6 -5 -6 6 -1 11
2 17 5 13 3 -3 4 -12 1 -19z m7 -118 c-6 -6 -10 -3 -10 10 0 13 4 16 10 10 7
-7 7 -13 0 -20z m-3 -143 c-10 -9 -11 -8 -5 6 3 10 9 15 12 12 3 -3 0 -11 -7
-18z m1599 -83 c0 -2 -9 0 -20 6 -11 6 -20 13 -20 16 0 2 9 0 20 -6 11 -6 20
-13 20 -16z m105 -46 c5 4 5 1 1 -6 -5 -9 -12 -9 -27 -2 -10 6 -19 13 -19 16
0 2 8 0 19 -5 10 -6 22 -7 26 -3z"/>
</g>
</svg>
